<svg xmlns="http://www.w3.org/2000/svg" viewBox="0 0 98.12 88.89"><defs><style>.a{fill:#fff;}.b{fill:#8dc8ed;}</style></defs><path class="a" d="M94.23,16.84H84.48a11.64,11.64,0,0,1-8.27-3.48,44.44,44.44,0,1,0,7.35,52.9,11.63,11.63,0,0,1,10.14-6h.23c3.16,0,4.44-2.56,4.44-5.72V21A4.15,4.15,0,0,0,94.23,16.84Z" transform="translate(-0.25 -0.25)"/><path class="b" d="M31.82,31.32l.49,0c1.27,0,2.53,0,3.79,0,.31,0,.52.07.63.38a3.64,3.64,0,0,0,.3.59.91.91,0,0,0,.16,0,6.38,6.38,0,0,1,5.43-.83,7.43,7.43,0,0,1,2,.83,3.42,3.42,0,0,1,1.77,3.13q0,8.4,0,16.78c0,.46,0,.92,0,1.38a2.91,2.91,0,0,1-1.15,2.35,4.63,4.63,0,0,1-2.53,1,9,9,0,0,1-3.1-.2c-.5-.14-1-.36-1.5-.56V79.66A35.73,35.73,0,0,0,76.76,60.17h5.17c-.07,1.16-3.19,6.6-5.41,9.43A40.46,40.46,0,1,1,29.61,7.09c17.55-7,35.19-.45,44.29,9.67h-.48c-2,0-4,0-6,0a1.32,1.32,0,0,1-.89-.29,34.83,34.83,0,0,0-16.2-7,34.66,34.66,0,0,0-22.84,4A34.85,34.85,0,0,0,9.87,37.11a35.6,35.6,0,0,0,21.32,40.5l.63.24ZM38,44v7.47a4.86,4.86,0,0,0,0,.66,1.07,1.07,0,0,0,2.06.09,3.35,3.35,0,0,0,.07-.71v-15a3.68,3.68,0,0,0-.06-.66c-.12-.54-.47-.77-1.1-.75a.91.91,0,0,0-1,.86,4.86,4.86,0,0,0,0,.66Z" transform="translate(-0.25 -0.25)"/><path class="b" d="M94.22,45.85H85.93a4.28,4.28,0,0,0-.05.46v5.22a3.43,3.43,0,0,0,.05.56A1,1,0,0,0,87,53a1,1,0,0,0,1-.93,4.16,4.16,0,0,0,0-.61V46.71h6.15c0,.13,0,.26,0,.39,0,1.58,0,3.17,0,4.75a6.53,6.53,0,0,1-.16,1.32,4.16,4.16,0,0,1-2.57,3,8.51,8.51,0,0,1-2.81.68,14.84,14.84,0,0,1-4.93-.26,8,8,0,0,1-1.17-.38,4.46,4.46,0,0,1-2.86-4.12c0-.17,0-.34,0-.51,0-5,0-10,0-15a7.38,7.38,0,0,1,.18-1.62,4.16,4.16,0,0,1,2.24-2.83,7.56,7.56,0,0,1,2.63-.79,14.76,14.76,0,0,1,5.58.24,6.73,6.73,0,0,1,1.07.36A4.28,4.28,0,0,1,94.21,36c0,.91,0,1.81,0,2.71,0,2.19,0,4.37,0,6.55ZM88,42.05c0-.15,0-.25,0-.35V36.33a2.38,2.38,0,0,0,0-.46.92.92,0,0,0-1-.79.94.94,0,0,0-1.06.75,3.35,3.35,0,0,0-.07.71v5c0,.16,0,.32,0,.5Z" transform="translate(-0.25 -0.25)"/><path class="b" d="M62.4,56.53H56.94l-.06-.74a2.76,2.76,0,0,0-.28.22,2.8,2.8,0,0,1-1.32.66,10.32,10.32,0,0,1-4.56,0,4.61,4.61,0,0,1-.63-.2,3.22,3.22,0,0,1-2.19-3c-.06-2,0-3.92,0-5.88a3.68,3.68,0,0,1,1.38-2.76,16.94,16.94,0,0,1,2.06-1.5c.9-.55,1.85-1,2.77-1.54.53-.31,1.06-.62,1.57-1a1.16,1.16,0,0,0,.53-1.09c0-1.09,0-2.18,0-3.27a2.91,2.91,0,0,0,0-.51.92.92,0,0,0-.74-.81.86.86,0,0,0-1,.45A2.94,2.94,0,0,0,54,36.66c-.07.9-.06,1.8-.06,2.7,0,.49.06,1,.08,1.48a3.46,3.46,0,0,1,0,.43h-5.9c0-.13,0-.23,0-.33,0-1.67,0-3.34,0-5A4.14,4.14,0,0,1,50.61,32a8.72,8.72,0,0,1,2-.64,14.16,14.16,0,0,1,5.69,0,6.16,6.16,0,0,1,.93.27A4.52,4.52,0,0,1,62.39,36c0,.22,0,.44,0,.66V56.53ZM56.19,45.4a2.1,2.1,0,0,0-2.13,2.3v3.73a6.47,6.47,0,0,0,0,.76.85.85,0,0,0,.45.65,1,1,0,0,0,1.63-.91V45.4Z" transform="translate(-0.25 -0.25)"/><path class="b" d="M30.46,41.2h-6c0-.57,0-1.13,0-1.69a12.34,12.34,0,0,0-.05-2.85,4.27,4.27,0,0,0-.32-1.07.87.87,0,0,0-1.59,0,2.16,2.16,0,0,0-.24.77,9.21,9.21,0,0,0,.2,3,2.31,2.31,0,0,0,1,1.45c.61.41,1.21.83,1.85,1.2.88.51,1.79,1,2.7,1.44a4.43,4.43,0,0,1,2.55,3.81,47.3,47.3,0,0,1,0,4.91A4.3,4.3,0,0,1,28,56.07a8.59,8.59,0,0,1-3.1.78,14.5,14.5,0,0,1-4.78-.28,8.12,8.12,0,0,1-1.84-.73,4,4,0,0,1-2.05-3,7.6,7.6,0,0,1-.1-1.07c0-1.67,0-3.34,0-5a2.83,2.83,0,0,1,0-.3,49.78,49.78,0,0,1,6.15,0c0,.17,0,.35,0,.54,0,1.5,0,3,0,4.5a3.25,3.25,0,0,0,.06.76.91.91,0,0,0,.87.73.82.82,0,0,0,.87-.59,4.14,4.14,0,0,0,.24-1,9.47,9.47,0,0,0-.18-3,6.59,6.59,0,0,0-.38-1.05,2.13,2.13,0,0,0-1-1c-1.25-.68-2.5-1.38-3.74-2.1-.43-.24-.83-.54-1.24-.81a3.3,3.3,0,0,1-1.52-2.71c-.06-1.67-.08-3.34,0-5a4.14,4.14,0,0,1,2.27-3.54,7.76,7.76,0,0,1,2.77-.85,14.39,14.39,0,0,1,5.43.25,7.16,7.16,0,0,1,.82.27,4.18,4.18,0,0,1,2.86,3.88C30.53,37.49,30.46,39.32,30.46,41.2Z" transform="translate(-0.25 -0.25)"/><path class="b" d="M78.35,42.45h-6.2V36.56a4.79,4.79,0,0,0,0-.66,1.07,1.07,0,0,0-2.06,0,3.14,3.14,0,0,0,0,.61Q70,44,70,51.55a3,3,0,0,0,0,.6,1,1,0,0,0,2.06-.07,3.61,3.61,0,0,0,0-.66V45.68h6.16c0,.14,0,.29,0,.44,0,1.89,0,3.78,0,5.68A6.21,6.21,0,0,1,78.22,53a4.15,4.15,0,0,1-2.4,3.06,8.21,8.21,0,0,1-3,.77,14.86,14.86,0,0,1-4.93-.28A8.69,8.69,0,0,1,66.32,56a4.36,4.36,0,0,1-2.47-3.75c0-.22,0-.44,0-.66q0-7.53,0-15A7,7,0,0,1,64,35a4.18,4.18,0,0,1,2.19-2.87,7.6,7.6,0,0,1,2.87-.87,14.91,14.91,0,0,1,5.53.25,6,6,0,0,1,1.82.79,4.11,4.11,0,0,1,1.86,2.93,8.24,8.24,0,0,1,.08,1.22c0,1.79,0,3.58,0,5.37Z" transform="translate(-0.25 -0.25)"/><path class="b" d="M84.05,30.06V28.65h1.44V19.57H84.06V18.12c1-.06,2,0,3,0,0,.53,0,1,0,1.53s0,1.06,0,1.59v1.62c.19-.16.31-.24.41-.34a3.89,3.89,0,0,1,4-.75,3.78,3.78,0,0,1,2.57,3.06,4.88,4.88,0,0,1-.5,3.41,4,4,0,0,1-6.07,1.12l-.4-.35,0,1A15.41,15.41,0,0,1,84.05,30.06ZM92.5,25.8v-.31A2.46,2.46,0,0,0,91,23.27a2.57,2.57,0,0,0-2.67.2,2.94,2.94,0,0,0-1.11,3.17,2.61,2.61,0,0,0,4.79.91A3.11,3.11,0,0,0,92.5,25.8Z" transform="translate(-0.25 -0.25)"/><path class="b" d="M81.94,21.76v6.86h1.4v1.47c-1,0-2,0-3,0l0-.87c-.16.09-.28.15-.4.23a4.13,4.13,0,0,1-1.92.77,3.82,3.82,0,0,1-1.31-.1,1.76,1.76,0,0,1-1.33-1.63,10.66,10.66,0,0,1-.09-1.38c0-1.11,0-2.21,0-3.32v-.56h-1a3.1,3.1,0,0,1-.07-1.49h2.73c0,.19,0,.37,0,.55,0,1.68,0,3.37,0,5.06,0,.19,0,.37,0,.56a.92.92,0,0,0,1.11.91,5.74,5.74,0,0,0,.89-.21,2.2,2.2,0,0,0,.46-.23c.93-.51.94-.51.94-1.57s0-2,0-3v-.57H78.84V21.8A14.76,14.76,0,0,1,81.94,21.76Z" transform="translate(-0.25 -0.25)"/><path class="b" d="M67.46,68.63c-.52-.66-1-1.2-1.38-1.75-.6-.79-.6-.78-1.6-.69-.61,0-1.23.08-1.84.11a1.86,1.86,0,0,1-.29-.06c.09-.16.16-.29.24-.42.4-.6.79-1.22,1.22-1.81a.84.84,0,0,0,.06-.91c-.28-.69-.55-1.39-.82-2.09a1.65,1.65,0,0,1-.08-.32,6.09,6.09,0,0,1,1.5.36c.39.09.79.2,1.18.33a.66.66,0,0,0,.69-.17c.53-.45,1.08-.89,1.62-1.33a5.43,5.43,0,0,1,.53-.38c0,.26.05.41.06.57,0,.72.08,1.43.09,2.14a.78.78,0,0,0,.44.74c.61.36,1.2.76,1.8,1.14l.44.33c-.25.11-.42.2-.6.26-.69.26-1.37.52-2.06.76a.56.56,0,0,0-.41.46c-.19.76-.39,1.52-.59,2.27C67.62,68.29,67.56,68.4,67.46,68.63Z" transform="translate(-0.25 -0.25)"/><path class="b" d="M23.75,20.21c0,.3.05.48.06.65,0,.72.08,1.43.09,2.15a.72.72,0,0,0,.4.65c.59.36,1.18.74,1.76,1.12.15.09.29.21.51.37-.25.11-.41.2-.58.26-.69.26-1.37.52-2.06.75a.63.63,0,0,0-.44.51c-.18.77-.39,1.55-.6,2.32a1.41,1.41,0,0,1-.17.3,3.6,3.6,0,0,1-.34-.35c-.45-.57-.91-1.14-1.35-1.73a.77.77,0,0,0-.78-.33c-.74.09-1.49.1-2.24.14l-.4,0c.08-.16.13-.28.2-.39.38-.58.76-1.17,1.17-1.73a1,1,0,0,0,.11-1.13c-.29-.65-.53-1.32-.78-2a1.48,1.48,0,0,1-.08-.32,5.57,5.57,0,0,1,1.46.34,12.15,12.15,0,0,1,1.18.33.7.7,0,0,0,.75-.17c.51-.44,1-.87,1.57-1.3Z" transform="translate(-0.25 -0.25)"/><path class="b" d="M20.64,62.5c.33.07.56.1.78.16.57.16,1.15.33,1.71.51a1,1,0,0,0,1.07-.23c.47-.43,1-.81,1.46-1.21.14-.12.29-.22.43-.32.23.16.16.36.17.54,0,.73.09,1.46.1,2.19a.64.64,0,0,0,.37.61c.59.37,1.18.74,1.76,1.12.16.1.3.21.54.38-.26.12-.43.21-.61.28-.68.25-1.37.51-2.06.75a.59.59,0,0,0-.41.46c-.18.76-.38,1.52-.59,2.27a3.19,3.19,0,0,1-.19.43c-.27-.32-.49-.57-.69-.83-.35-.44-.7-.88-1-1.33a.67.67,0,0,0-.7-.29c-.76.07-1.52.1-2.29.14a3.91,3.91,0,0,1-.41,0,5.3,5.3,0,0,1,.28-.47c.39-.6.78-1.2,1.19-1.78A.78.78,0,0,0,21.6,65c-.29-.71-.56-1.42-.84-2.14C20.73,62.79,20.71,62.71,20.64,62.5Z" transform="translate(-0.25 -0.25)"/><path class="b" d="M59.19,22.58c-.23-.27-.41-.47-.57-.68-.38-.48-.76-1-1.13-1.45a.73.73,0,0,0-.74-.32c-.74.08-1.49.1-2.24.14l-.43,0a4,4,0,0,1,.23-.43c.39-.59.77-1.2,1.19-1.77a.91.91,0,0,0,.09-1c-.28-.67-.54-1.35-.81-2,0-.08,0-.18-.06-.31a5.57,5.57,0,0,1,1.46.33c.36.09.72.19,1.08.31a.82.82,0,0,0,.88-.19c.5-.44,1-.86,1.54-1.28l.53-.39a5.56,5.56,0,0,1,.06.57c0,.73.09,1.46.1,2.19a.73.73,0,0,0,.42.69c.61.37,1.21.76,1.81,1.15l.44.33c-.25.11-.42.2-.6.27-.68.25-1.37.51-2.06.75a.59.59,0,0,0-.41.46c-.18.77-.39,1.52-.59,2.28A3.19,3.19,0,0,1,59.19,22.58Z" transform="translate(-0.25 -0.25)"/><path class="b" d="M44.07,15.66l-1.73.65c-.32.12-.64.25-1,.35a.57.57,0,0,0-.41.47c-.18.76-.39,1.51-.59,2.27a2.69,2.69,0,0,1-.19.42c-.24-.29-.43-.5-.6-.72l-1.1-1.41a.73.73,0,0,0-.74-.32c-.74.08-1.49.1-2.24.14l-.44,0a4,4,0,0,1,.23-.43c.39-.59.77-1.2,1.2-1.77a.93.93,0,0,0,.09-1c-.28-.67-.54-1.36-.81-2,0-.09,0-.19-.07-.32a4.88,4.88,0,0,1,1.45.33c.41.09.82.21,1.23.34a.63.63,0,0,0,.65-.15c.52-.44,1.05-.87,1.58-1.3l.47-.36c.25.15.17.36.18.53,0,.71.09,1.43.1,2.14a.77.77,0,0,0,.46.72c.6.35,1.18.74,1.76,1.12Z" transform="translate(-0.25 -0.25)"/><path class="b" d="M52.64,73.64l-1.16.45c-.5.18-1,.37-1.49.54a.61.61,0,0,0-.44.5c-.18.74-.38,1.48-.58,2.22a3.42,3.42,0,0,1-.18.45c-.16-.18-.28-.28-.38-.41-.43-.55-.86-1.09-1.28-1.65a.82.82,0,0,0-.86-.38c-.75.09-1.5.1-2.24.14l-.36,0a2.28,2.28,0,0,1,.18-.38c.4-.61.79-1.23,1.23-1.82a.92.92,0,0,0,.09-1c-.28-.68-.54-1.36-.81-2,0-.09,0-.19-.1-.38L45,70c.62.17,1.25.35,1.86.54a.75.75,0,0,0,.79-.19c.52-.44,1.05-.87,1.58-1.3.14-.11.29-.21.52-.37,0,.27.05.42.06.58,0,.73.09,1.46.1,2.2a.7.7,0,0,0,.4.64c.61.37,1.21.76,1.81,1.15C52.3,73.37,52.43,73.48,52.64,73.64Z" transform="translate(-0.25 -0.25)"/><path class="b" d="M66.71,27.21l1.32.62A3.87,3.87,0,0,1,65.79,30a4.93,4.93,0,0,1-2.58.19A3.87,3.87,0,0,1,60.31,28a4.48,4.48,0,0,1,1.35-5.7A3.78,3.78,0,0,1,66,22.09l.29.16.06-.51h1.39c.07,1,0,2.05,0,3.11H66.33a.8.8,0,0,1-.07-.2,2,2,0,0,0-1.65-1.54,2.29,2.29,0,0,0-2.35.78,2.9,2.9,0,0,0-.65,1.9A3.81,3.81,0,0,0,62,27.47a2.56,2.56,0,0,0,4.24.44Z" transform="translate(-0.25 -0.25)"/><path class="b" d="M68.87,28.63h1.4V19.57h-1.4V18.11c.5,0,1,0,1.51,0h1.53a14.51,14.51,0,0,1,0,1.74c0,.58,0,1.16,0,1.74v7.05h1.26V30a28.93,28.93,0,0,1-4.34.05Z" transform="translate(-0.25 -0.25)"/></svg>